<?xml version="1.0" encoding="utf-8"?>
<!-- Generator: Adobe Illustrator 16.0.0, SVG Export Plug-In . SVG Version: 6.00 Build 0)  -->
<!DOCTYPE svg PUBLIC "-//W3C//DTD SVG 1.1//EN" "http://www.w3.org/Graphics/SVG/1.1/DTD/svg11.dtd">
<svg version="1.1" id="Layer_2" xmlns="http://www.w3.org/2000/svg" xmlns:xlink="http://www.w3.org/1999/xlink" x="0px" y="0px"
	 width="602.668px" height="271.668px" viewBox="0 0 602.668 271.668" enable-background="new 0 0 602.668 271.668"
	 xml:space="preserve">
<g id="Layer_1">
	<g>
		<path fill="#FFFFFF" stroke="#FFFFFF" stroke-width="3" stroke-miterlimit="10" d="M94.004,159.925l-0.631,0.421h-1.579
			l-1.684-0.842l-2.21-1.263l-5.578-4.104l-3.894-3.473l-4.104-5.157l-3.157-4.315l-2.631-4.525l-3.262-3.473l-4.525-5.578
			l-5.157-4.946l-4.736-4.315l-3.683-4.736l-5.367-6.314l-3.894-5.788l-4.104-5.157l-3.894-4.735l-4.525-3.894l-4.946-2.841h-4.736
			l-0.21,3.052l-1.474,4.946l-1.263,7.788l-0.21,4.736l-1.158,4.104l-1.473,10.945l-0.421,6.314v3.894l-0.632,8.84v2.105
			l1.053,1.684l1.684,2l0.947,2.736l-0.526,1.579l-1.052,1.473l-1.894,0.842l-2-0.421l-1.474-1.263l-1.052-1.684l-2.631-4.314
			L1.5,138.983v-6.419l0.421-10.103l1.052-4.104l0.526-2.631v-5.157l0.631-3.052l0.631-3.157l0.21-3.473l1.052-4.525l0.421-4.946
			l1.053-5.367l0.315-5.683l1.052-3.578l0.211-4.104v-4.946l0.631-5.052l0.21-5.367l2.104-11.155l0.737-4.104v-4.104l0.21-5.788
			l1.473-3.894l1.263-3.684l-0.842-3.683l0.842-3.894l-1.684-4.104l0.632-3.368l1.684-3.052l4.525-0.421l4.525-3.052l4.315-0.631
			l6.104-0.21l6.419,0.21l7.156,0.631l3.473,1.473l2.947,1.158l3.052,2.315l3.473,3.262l2.104,3.894l2.21,4.104l1.895,5.367v3.473
			l1.894,4.104l-0.21,4.736l0.526,2.315l-0.526,4.735l-0.842,4.104l-0.631,4.736l-0.21,4.314l-0.842,3.684l-2,4.525L62.749,69
			l-3.052,2.105l-3.263,2.631l-3.157,1.684l-3.052,2v4.104l1.052,3.157l1.263,3.262l0.736,3.052l2.947,7.261l4.525,7.577l2,3.473
			l1.894,4.315l3.052,5.578l1.684,3.473l2.841,4.104l1.474,4.525l1.789,4.104l2.736,4.315l2.21,3.578l3.368,4.104l4.104,3.894
			l2.841,3.052l2.105,2.736l0.947,1.368L94.004,159.925z M51.172,39.428l-1.474-4.525l1.053-4.525l-1.053-1.894v-7.998l-2.2-3.263
			l-4.297-1.263l-3.562-1.473l-1.781,0.842l-1.466-0.21l-6.706,2.315l-1.258,2l-0.838,2.526l-0.837,3.473l-0.839,4.525v3.894
			l-2.42,11.155l-2.105,5.472l-1.368,4.525l-0.421,5.157l0.419,2.525l-0.419,3.473l2.202,1.789l3.147,0.842l2.832-1.579l5.139-1.263
			l6.71-1.263l3.567-2.421l3.88-3.157l1.363-3.263l-0.735-2l0.735-2.104v-3.894l0.209-3.683L51.172,39.428z M49.278,33.429
			l-1.789,1.052l-1.052-1.473l1.052-1.789l1.789,0.736V33.429z"/>
		<path fill="#FFFFFF" stroke="#FFFFFF" stroke-width="3" stroke-miterlimit="10" d="M189.876,153.085l-0.842,1.052l-1.684,0.632
			l-0.631-1.051l-1.158-1.576l-1.472-2.941l-2.103-2.835l-3.049-5.357l-2.208-5.146l-0.84-3.677l-1.472-1.997l-2.628-7.457
			l-2.103-2.626l-1.682-3.886l-2.419-3.887l-1.891-1.68l-4.522-4.937l-0.945-2.836l-3.58-2.521l-4.529-0.84l-4.843,0.628
			l-4.949,0.835l-3.58,1.465l-3.896,3.452l-3.685,1.883l-0.844,1.777l-2.843,2.092l-6.002,3.451l-1.158,1.255l-0.844,4.736v3.052
			l-1.478,1.684v3.684l-0.631,3.894l0.631,6.314l-0.631,4.315l-1.263,4.525l-2,3.578l-2.315,2.842l-3.894,3.473l-3.683,0.631
			l-3.473,0.421l-1.052-0.842h-2l-1.473-1.789l-1.053-0.842v-2.105l-1.052-1.579v-4.314l1.052-2.736l-0.21-2.42l0.631-1.473
			l1.263-0.632v-2l2-1.052l0.842-1.894l1.263-2.631l1.789-0.842l1.684-3.894l0.631-4.315l1.052-0.631l-0.421-2.842l0.842-4.314
			v-2.736l-1.894-4.104l-1.263-3.683l-0.421-4.104l-0.21-2.841l0.631-0.842l-0.421-1.473V95.73l3.157-3.894v-1.263l1.789-2
			l2.315-3.683l2.841-4.104l0.631-2.946l0.21-2.21l-0.21-1.684l1.052-5.367l0.842-5.157l1.789-6.525l0.421-3.683l0.842-1.684
			l-0.21-5.577l-0.421-4.946l0.421-4.736l1.684-3.894l1.579-3.052l1.895-1.473l0.631-2.842l1.368-1.894l0.631-1.789l-0.631-1.263
			l0.421-2.842l-1.579-3.368l0.421-3.473l-1.263-1.579l0.631-2.736h1.368l2.315-1.789l1.263-0.21l0.947-1.684l3.367-0.421
			l2.842,1.263l2.42,3.684l1.052,0.631l1.684,3.262l2,3.894l0.842,3.683l1.894,4.209l2.421,3.263l0.21,1.789l1.684,1.894l1.052,2.21
			l2,2.736l-0.21,2.631l1.895,3.894l0.21,1.684l1.158,2.105l1.052,3.683l1.684,3.052l0.632,5.157l0.947,3.684l1.263,5.157v1.894
			l1.052,2.841l1.473,4.946l1.368,4.525l0.421,3.684l1.053,2.631l2.841,1.894l3.368,1.053l4.104-0.211h3.894l3.894,0.842
			l0.632,1.157l0.842,1.053l-0.842,0.631l-0.632,1.052l-1.684,1.789l-2.21,0.21l-0.842,1.053l-3.263,0.631l-3.683,1.684
			l-1.474,1.368v2.526l0.632,3.052l1.368,3.052l1.684,2.947l1.473,4.315l1.053,2.631l1.368,4.104l1.474,3.683l2.21,4.525
			l1.473,3.789l0.842,5.893l1.052,0.632l1.368,3.052l1.473,2.947v1.789l1.052,1.052L189.876,153.085z M95.898,162.557l-0.21,0.842
			l-1.473-0.21l-0.632-1.579l1.053-0.21h1.263V162.557z M150.552,84.891l-0.946-2.315l-2.103-3.894l-0.421-3.684l-1.051-1.684
			l-0.736-2.21L144.034,69l0.21-5.578l-2.733-3.683l0.84-1.579l-1.05-2.526l-1.367-7.577l-1.682-3.473l-0.21-2.736l-2.419-3.052
			l-0.84-1.684l-2.103-4.525l-4.328,4.315l0.421,2.736l-1.583,2.42v2.526l-0.423,1.368l-0.844,4.314l-0.422,3.789v1.158
			l-1.056,1.473v3.052l-0.422,5.999v2.841l-1.161,2.526l0.738,2.631l-1.161,3.262l1.791,2.526l4.948,2.21l5.16,1.895l4.316,2.42
			l2.422,1.684l4.211,0.842l2.843-0.631l0.842-0.631L150.552,84.891z M140.309,85.312l-1.263,0.316l-1.053-0.737l0.21-0.842h1.053
			l0.631-0.421l0.421,0.631V85.312z M188.192,90.995l-0.21,0.842l-0.842,0.421h-0.631v-0.631l0.21-0.842l0.421-0.21L188.192,90.995z
			"/>
		<path fill="#FFFFFF" stroke="#FFFFFF" stroke-width="3" stroke-miterlimit="10" d="M278.697,15.749l-0.42,1.894l-1.264,1.789
			l-1.789,2.105l-1.262,3.052l-1.474,3.263l-2,3.157l-1.894,3.894l-1.263,4.525l-2.21,5.157l-2.104,4.946l-3.473,7.367l-0.842,2.842
			l-0.737,3.894l-0.842,3.578l-0.842,4.315l-0.842,5.683l-0.842,5.157l-1.157,5.578l-0.21,3.894l-1.053,4.104l-1.052,4.315
			l-1.473,3.894l-3.894,7.682l-0.631,2.42l-2,3.473l-2.526,2.525l-1.368,3.473l-1.894,2.42l-0.842,3.789l-1.368,3.683l-3.368,3.052
			l-4.104,1.894l-3.262-0.421l-3.263-1.473l-1.684-3.052l-0.631-3.473v-3.368l1.052-2.841l-1.052-2.841l-1.158-3.789l-0.21-3.473
			l0.21-4.736l-0.842-3.262v-4.104l-1.263-1.894l0.211-2.841l-1.053-2.631l-2-7.261l-1.473-2.631l-0.631-3.157l-0.842-3.894
			l0.632-3.683l-2.631-2.631l-1.263-4.525l-1.894-2.947l-0.737-3.262l-2.315-3.052l-2.631-2.947l-2.315-2l-2.21-3.473l-1.473-2.104
			l0.421-3.473l1.263-3.473l2-2.315l3.157-2h3.473l3.262,1.368l3.894,1.895l3.262,3.683l2.526,5.788l0.631,4.315v6.314l1.789,5.367
			l1.684,4.104l1.895,4.315l1.158,6.209l0.842,5.578l1.473,4.946l0.842,3.894l0.737,4.104l0.421,4.314l0.631,3.684l1.474,1.263
			l2.42-0.842l1.894-1.894l1.263-3.894l1.158-3.052l1.263-2.842l1.473-3.789l1.368-2.21l0.631-3.683l1.895-4.525l1.473-4.104
			l1.579-3.578l0.842-2.842l1.263-2.631l-0.21-3.157l1.579-2.841l-0.21-2.631l2.736-1.895l1.263-4.736l2.21-3.683l1.894-4.315
			l1.789-3.262l1.684-2.736l2-3.683l2.525-3.473l-0.21-2.525l2.21-4.315l0.421-3.473l1.053-2l1.894-1.263l1.368-2.736l1.684-1.368
			l2.104-0.21l2,1.368L278.697,15.749z"/>
		<path fill="#FFFFFF" stroke="#FFFFFF" stroke-width="3" stroke-miterlimit="10" d="M370.15,26.904l-0.211,2l-1.578,0.631h-1.475
			l-3.051-1.263l-2.736-1.368h-7.367l-4.945,1.579l-5.578,1.052l-6.945,3.473l-4.736,0.842h-3.053l-2.945,1.263l-7.998,0.21h-6.736
			l-7.051,0.631l-6.104,1.158l-3.156,1.052l-2,3.263l-0.842,3.578l-0.633,5.472l-0.42,5.367l-1.053,9.261L289.748,67l-0.947,6.104
			l0.947,0.631l1.684-0.421l2.631-1.052L297.64,69l3.262-1.263h6.947l9.049,0.21l5.789,0.421l1.053,0.842l1.789,1.474h5.367
			l1.895,1.263l1.998-0.21l4.105,1.368l4.314,0.631l0.211,1.052l-0.736,0.842l-2.527,1.789h-2.42l-1.895-0.421l-7.156-0.21
			l-7.893,1.263l-7.367,0.842l-6.734,1.052l-6.631,0.421l-5.367,2l-5.156-3.683L288.8,84.47l0.316,4.104l0.42,5.157l1.264,5.683
			l1.895,6.209l1.998,5.578l6,8.419l3.262,3.684l4.525,2.841l4.525,2.315l5.578,2.841l6.734,0.842l7.051,1.263l5.367,1.263
			l3.473-0.21l3.053,0.947l8.209,1.263l1.684,1.473l-0.422,1.579l-0.631,1.895l-2.42,0.421l-5.158-0.631l-5.367,0.21l-8.418,0.421
			l-5.789-0.421l-4.314-1.474l-2,0.21l-2.945-0.631l-5.895-1.579l-3.893-0.842l-2.947-2.631l-3.262-2.105l-2.842-2.21l-2.947-4.946
			l-3.262-5.157l-0.633-4.735l0.633-3.263l-2.525-4.736l-0.738-5.156l-1.893-2.736l-0.422-6.104l-1.053-3.894l0.631-3.999
			l-1.156-5.894l1.156-3.894l-1.578-2.736l0.736-1.158l-0.314-3.157l1.156-3.473l-0.631-3.473l1.684-3.683l-0.631-4.946V49.32
			l1.473-2.525l-0.42-3.684l0.842-2.104l-0.422-3.894l-1.895-2.21l-3.893-3.894l-0.211-2.105l0.211-3.684l0.842-4.735l1.473-3.473
			l3.895-2.525l3.473-1.158l2.631-1.053l4.525,1.263l4.945,2.42l6.42,0.21l8.84-0.21l11.682-0.421h6.842l5.367,1.473l5.471,0.421
			l4.105,0.632l3.789,1.157l2.84,0.842h1.895l4.105,2.315l3.473,2.21L370.15,26.904z M300.902,135.194l-0.42,1.474l-1.895-0.21
			v-1.789l1.473-1.053L300.902,135.194z"/>
		<path fill="#FFFFFF" stroke="#FFFFFF" stroke-width="3" stroke-miterlimit="10" d="M508.644,46.794l-0.422,6.419l0.211,3.683
			l-0.631,5.788v3.894l-1.264,4.525v4.104l-1.262,3.052l0.209,3.262l-1.789,3.789l0.633,2l-0.842,1.473l-0.633,3.263l-0.211,5.367
			l-1.893,3.683l-1.158,3.894l-0.842,4.104l-1.473,1.684l-1.475,4.314l-2.209,4.525l-3.264,4.525l-3.684,3.894l-3.998,3.263
			l-4.736,1.684l-5.051,1.053l-4.525,0.631h-5.578l-5.787-0.631l-3.895-1.053l-3.473-2.104l-3.473-2l-2.525-3.263l-2-3.578
			l-1.473-4.104l-1.475-3.684l-0.42-4.525l-0.633-4.315l-0.525-4.525l0.525-5.788v-4.736l0.422-5.262l1.053-2.947l-0.842-2v-2.947
			l1.473-3.052l0.422-4.315l-0.211-3.262l0.842-4.736l1.158-4.525v-4.104l1.051-4.315v-4.525l-2.209-3.578l-0.842-4.104l-0.211-2.21
			l1.053-3.894l1.789-2.525l1.473-0.631l3.684-1.789l4.314-0.632l4.105,0.842l3.367,2.21l2,1.473l1.051,1.474l2.211,1.789
			l1.053,2.736l-0.211,3.894l-2.211,3.894l-2.314,3.473l-2.42,4.525l-0.842,3.263l-1.264,5.999l-2.42,5.157l-1.473,5.788
			l-1.475,5.472l-1.578,4.946l-1.473,5.367l-0.211,5.999l-1.264,4.736l1.053,6.314l0.211,7.682l0.842,5.262l2.209,3.367l3.158,2.631
			l1.789,1.473l2.736,0.842l5.367,1.158l3.684,0.421l3.893-0.21l6.947-1.368l5.365-3.368l3.053-3.262l2.314-3.683l2.422-3.052
			l0.211-2.947l1.473-2l1.895-4.525l1.367-3.894l0.842-3.789l2.105-3.683l-0.211-2.21l0.211-2.105l1.789-2.21l-0.631-3.578
			l1.473-5.894l0.631-4.946l1.475-4.315l-0.633-4.946l0.842-4.315l0.316-5.156l-0.316-4.104v-4.104l0.947-3.262l-1.156-1.473
			l0.525-2.315l-0.525-2.631l0.209-2.42l0.316-2.947l0.422-3.052v-1.684l1.893-0.631l0.633,0.842l-0.633,2.947l0.422,4.525v2.42
			l0.631,5.788L508.644,46.794z"/>
		<path fill="#FFFFFF" stroke="#FFFFFF" stroke-width="3" stroke-miterlimit="10" d="M601.148,41.006l-0.42,4.314l-0.633,5.367
			l-1.051,4.104l-1.369,2.947l-0.842,3.052l-1.684,3.473l-2.842,1.895l-1.473,3.052l-3.053,3.052l-3.051,1.263l-2.527,1.684
			l-10.838,1.263l-5.158-1.263h-3.156l-4.105-1.894l-0.631-1.052V69.42l0.842-0.631h2.736l3.053,1.052l3.262,0.842l5.998,0.421
			l5.158-0.421l3.473-0.842l2.104-3.052l1.369-3.157l2.947-4.104l0.736-3.052l1.895-2.841l0.842-4.736l0.42-8.103l-1.053-4.104
			v-4.315l-1.684-3.683l-3.262-6.314l-0.842-2.525l-2-1.053l-1.473-3.683l-4.525-2.21l-3.473-1.263l-5.578-0.631l-5.998-0.21
			l-5.895,0.21l-1.473,1.474l1.053,3.262l-1.475,4.736l-1.473,4.946l-1.578,5.578l-1.264,5.683l-0.631,3.157l-0.211,4.736
			l-0.842,4.314l-0.525,5.683l-1.053,4.314v4.736l-1.264,5.157l-0.631,3.894l-0.631,4.525l-1.789,4.946l-0.633,4.736l-1.473,5.578
			l-0.842,5.578l-1.367,5.894l-1.686,5.999l-5.156,10.313l-0.211,3.684l-1.578,3.262l-1.262,3.684l0.209,4.735l-0.42,3.157
			l-1.473,3.894l0.842,5.367l1.893,2.631l0.633,2.841l-0.633,1.053l-1.893,0.21h-1.053l-0.947-1.263l-1.475-3.683l-0.42-4.946
			l0.631-6.314l0.842-5.578l0.422-5.788v-4.314l1.578-1.053l1.053-2.631l0.211-5.157l-0.842-5.157l1.893-3.473l2-9.051l0.842-5.367
			l1.053-4.525l-1.053-4.315l0.422-3.894l1.262-7.156l0.422-7.262l1.158-6.314l-0.211-5.788l1.262-4.946l1.686-7.367V33.85
			l1.156-7.998l-1.156-4.946l-0.633-5.157l-0.631-3.262l1.053-4.946l2.42-2.315l4.525-1.158l4.104,1.579h2.947l5.262-2.631
			l5.156-0.842l4.947,0.631l4.525-1.263l5.156,1.052l5.789,2.21l4.314,2.947l3.893,4.104l3.264,6.209l1.473,2l0.422,3.473
			l1.789,2.947l1.051,4.104l0.633,3.894l-0.422,3.473L601.148,41.006z"/>
		<path fill="#FFFFFF" stroke="#FFFFFF" stroke-width="3" stroke-miterlimit="10" d="M99.845,198.436l-1.473,0.421l-2-0.21h-1.895
			l-2.841,0.421l-3.473,2l-1.684,2.315l-3.473,1.473l-1.474,1.789l-2.841,2.526l-1.263,2.631l-0.842,2.42v3.157l-0.842,2.42
			l-0.947,2.526l-0.842,2.841l-0.21,3.052v6.841l-0.21,3.052l-0.842,3.052l-0.21,2.947l-0.421,3.263v3.052l-1.579,3.157
			l-1.895,1.789l-2.841,0.842l-1.894,0.421l-1.684-0.421l-1.579-1.684l-0.842-2l-0.842-2.104l0.21-2.42l-0.21-3.473v-4.946
			l-0.21-2.315l0.21-2.631l0.21-3.473v-2.947l0.421-3.473l0.21-3.473l-0.21-3.894v-3.157l-0.421-2.631l-0.21-2.42l-1.789-2.947
			l-1.474-2.42l-0.842-2.526l-0.21-2.841l0.421-2.631l1.053-1.895l1.789-1.263l2.946-1.052l3.263-1.579l2.841,0.421l3.578,1.579
			l0.421,2.104l1.579,2.842v4.314l1.263,1.263l1.263,0.21l1.789-0.421l2.104-1.684l2.841-1.789l3.263-1.473l2.736-1.579l3.262-0.421
			l3.473-0.842h1.895l2.631,0.842l0.842,1.579V198.436z"/>
		<path fill="#FFFFFF" stroke="#FFFFFF" stroke-width="3" stroke-miterlimit="10" d="M168.355,209.17l-1.895,2.841l-3.052,1.684
			l-3.683,1.578l-4.525,1.474l-4.946,0.421l-4.525,1.052l-3.157,1.579l-3.683,1.263l-3.052,0.842l-4.946,0.21l-3.894-0.421
			l-2.631,0.21l-2.315,0.842l-1.052,2.42l0.421,4.525l1.263,2.42l2.42,2.947l4.525,4.946l2.315,2.21l4.525,2.315l2.42,1.158
			l2.947,1.263h3.473l3.263-0.842l2.736-0.421l3.052-1.158l3.052-0.631h1.894l0.21,0.842l-1.052,1.158l-1.894,1.263l-3.263,1.684
			l-3.473,1.789l-3.263,1.263l-3.157,0.842l-4.736-0.21l-4.736-1.052l-3.894-2l-4.525-2.947l-4.104-3.473l-2.841-1.895l-2.105-2
			l-1.789-2.525l-1.263-0.947l-2.631-6.419l-2.315-5.578l-1.473-4.525l-0.526-3.473l0.316-3.894l0.842-4.104l0.842-3.473
			l1.053-2.315l1.052-2.631l0.947-1.263l1.894-1.684l1.474-0.21l2.631-3.683l3.052-2.631l3.157-1.684l3.894-0.631h4.946l4.104-0.21
			l5.578,0.631l4.525,1.263l12.523,6.209l3.263,2l3.052,2.736l1.684,2.21l1.052,3.684V209.17z M148.36,203.025l-1.789-1.919
			l-2.736-1.386l-3.052-1.279l-3.473-0.426h-3.368l-3.052,0.854l-3.052,1.277l-2.736,2.026l-1.579,0.854l-1.684,1.917l0.632,1.386
			l1.473-0.214l2.42,0.214h4.104l3.473,0.842h3.578l3.894-0.21l3.473-0.845l3.052-0.852L148.36,203.025z M157.621,241.162
			l-1.263,1.053l-1.158-1.053l0.631-1.368h1.579L157.621,241.162z"/>
		<path fill="#FFFFFF" stroke="#FFFFFF" stroke-width="3" stroke-miterlimit="10" d="M233.814,199.067l-0.421,2.841l-1.053,2.105
			l-2.841,4.946l-2.947,0.947h-4.104l-3.473-1.158l-2.736-0.421l-3.683-1.053h-3.262l-2.21,0.842l-3.789,2.21l-2.21,2.315
			l-2.315,3.052l-1.579,3.052l-0.842,2.526l-0.632,1.789l-1.473,1.263l-0.947,4.315l-0.21,3.157v6.104l1.368,3.262l2.736,2.736
			l2.42,1.052l3.683,1.158l2.315,1.052h7.998l3.473-0.631l1.894-0.842l1.474-1.158l2,0.21l1.052,1.789l-0.421,1.474l-2.105,1.684
			l-2.841,1.368l-3.684,1.473l-3.262,1.053l-2.736,0.421l-5.367,0.526l-5.051-0.526l-2.947-1.263l-2.841-1.263l-2.947-2l-2.21-0.842
			l-1.263-2.947l-1.368-2.631l-0.842-3.052l-0.421-3.894l-1.053-4.315l-0.631-4.735v-3.368l-0.21-4.525l0.21-3.473l0.631-3.684
			l1.474-3.052l0.631-2.105v-4.104l0.947-3.052l4.104-3.578l1.895-0.947l1.473-0.421l3.894-1.473l2.631-0.842l2.315-0.21
			l3.894-0.947l3.894-1.473l3.052-0.842l3.157-0.842l3.052,0.21l3.473,0.631l3.263,1.053l3.157,2.42l2.631,1.684l2.104,2.21
			L233.814,199.067z"/>
		<path fill="#FFFFFF" stroke="#FFFFFF" stroke-width="3" stroke-miterlimit="10" d="M300.324,224.324l-0.42,3.683l-0.736,3.368
			l-1.475,2.631l-1.053,2.842l-1.789,2.947l-2.525,1.789l-1.684,2.526l-3.473,1.789l-3.473,1.263l-4.104,0.421l-4.105,0.631
			l-3.894,0.421l-4.104-0.842l-3.368-0.632l-3.263-1.263l-2.631-1.158l-2.736-2.525l-2.42-2.842l-2.525-1.473l-1.789-2.841
			l-1.263-2.947l-1.473-2.841l-0.21-3.263l-0.316-4.104l0.526-2.947l1.052-4.104v-4.104l1.263-4.104l2.21-6.525l2.315-2.104
			l0.421-2.42l2.21-1.684l2.736-1.894l2.631-1.579l3.894-0.842l2.526,0.421l2.21,1.263l1.263,2.42l0.421,2.105l-0.21,2.841
			l-1.684,2.21l-2,2.526l-1.263,2.841l-0.21,2.736l-2.104,2l-1.158,3.894l-1.052,2.526l-0.211,3.894v3.262l0.632,3.473l1.473,2.736
			l1.789,2.21l2.315,1.684l2.21,2.21l2.736,0.842l3.474,0.21l0.42,0.631l3.895-0.21l3.473-0.631l3.895-2.631l2.314-2.315
			l1.789-3.473l0.631-3.263v-4.314l-1.051-2.526l-1.789-3.262l-1.895-2.631l-2.422-2.315l-2.525-2l-2-1.474l-1.473-1.263l-0.42-2.21
			l0.842-1.473h1.998l1.895,1.263l2.631,1.052l1.684,1.368l3.475,2.315l2.314,1.789l1.578,2.315l1.895,2.841l1.684,2.526l0.947,2.42
			L300.324,224.324z M278.751,200.856l-1.264,0.421l-1.369-1.158l0.844-0.842l1.367,0.21L278.751,200.856z"/>
		<path fill="#FFFFFF" stroke="#FFFFFF" stroke-width="3" stroke-miterlimit="10" d="M360.416,198.436l-1.475,0.421l-1.998-0.21
			h-1.895l-2.842,0.421l-3.473,2l-1.684,2.315l-3.473,1.473l-1.475,1.789l-2.84,2.526L338,211.801l-0.842,2.42v3.157l-0.842,2.42
			l-0.947,2.526l-0.842,2.841l-0.211,3.052v6.841l-0.211,3.052l-0.842,3.052l-0.211,2.947l-0.42,3.263v3.052l-1.578,3.157
			l-1.895,1.789l-2.842,0.842l-1.895,0.421l-1.684-0.421l-1.578-1.684l-0.842-2l-0.842-2.104l0.209-2.42l-0.209-3.473v-4.946
			l-0.211-2.315l0.211-2.631l0.209-3.473v-2.947l0.422-3.473l0.211-3.473l-0.211-3.894v-3.157l-0.422-2.631l-0.209-2.42
			l-1.789-2.947l-1.475-2.42l-0.842-2.526l-0.209-2.841l0.42-2.631l1.053-1.895l1.789-1.263l2.947-1.052l3.262-1.579l2.842,0.421
			l3.578,1.579l0.42,2.104l1.578,2.842v4.314l1.264,1.263l1.264,0.21l1.789-0.421l2.104-1.684l2.842-1.789l3.262-1.473l2.736-1.579
			l3.264-0.421l3.473-0.842h1.895l2.631,0.842l0.842,1.579V198.436z"/>
		<path fill="#FFFFFF" stroke="#FFFFFF" stroke-width="3" stroke-miterlimit="10" d="M430.925,128.347l-1.158,5.683l-1.264,7.893
			l-2.104,5.473l-1.369,5.367l-1.473,5.788l-1.264,6.946v6.209l-0.42,5.999l0.211,3.683l-0.422,5.894l-0.42,7.051l-1.158,4.946
			l0.842,11.682l-0.422,4.946l-0.209,5.367l-0.633,6.314l-0.631,4.525l-0.42,3.999l-0.422,6.946l0.842,6.209l1.053,12.523
			l0.842,3.053l1.158,1.051l-0.633,2.631l-1.773,1.264l-1.832-1.473l-0.609-2.842l-0.205-3.264l-1.16-2.314l-1.055-7.156
			l-0.844-3.894l-1.686-3.368l-1.582,2.315l-1.689,1.684l-3.689,0.947l-2.848,0.421l-6.012,2.105h-4.113l-5.801-1.684l-4.115-0.421
			l-1.475-2.841l-3.27-1.684l-2.004-1.579l-1.477-3.578l-2.637-2.841l-1.477-3.683l-1.898-3.263l0.211-4.314l-1.053-5.999
			l1.264-6.419l1.473-3.262l2-5.788l4.104-3.894l4.736-1.368l2.945-1.684l6.525-2.315l4.314,0.842l2.947-0.21l3.262,1.894
			l4.947,0.842l4.314,2.42l-0.422-6.314l0.422-6.209l0.211-5.157l-0.422-10.734l-0.631-5.052v-6.419l1.053-6.946v-4.525
			l-0.633-5.578l-0.842-5.367l-2.84-7.156l-0.422-4.104v-2.315l0.211-3.052l1.053-2.946l1.998-1.789l5.158,0.21l4.525,2.631
			l4.734-1.474l5.789,2.947L430.925,128.347z M410.404,228.639v-8.84l-0.422-4.315l-1.473-2.841l-0.211-4.314l-1.367-3.473
			l-3.158-0.421h-4.525l-5.262,1.789l-5.367,4.104l-3.156,3.578l-2.211,3.473l-1.053,3.683l-2.42,3.684l-0.42,3.473l0.631,3.368
			l1.158,2.42l1.684,1.895l5.156,5.262l7.576,2.105l4.947-0.21h3.051l3.158-0.21l2.631,0.421l-0.631-3.684l1.262-0.631v-6.209
			L410.404,228.639z"/>
		<path fill="#FFFFFF" stroke="#FFFFFF" stroke-width="3" stroke-miterlimit="10" d="M484.072,236.637l-0.422,2.946l-1.053,3.263
			l-1.473,2.841l-2.211,2.105l-2.736,2.42l-2.42,0.842l-2.631,1.473l-2.314,1.053l-3.264,0.21h-6.629l-2.211-1.684l-2.945-0.21
			l-4.105-1.052l-3.473-1.368l-2-1.684l-2.104-0.842l-1.264-2.42l-1.158-2.315v-3.052l1.158-3.052l0.842-1.894l1.473-2.105
			l1.789-0.316l0.842,1.789l-0.842,2.315l-0.209,2.631v3.052l1.473,2.315l2.842,1.052l2.947,1.158l2.631,1.052l4.314,0.421
			l2.736,1.263l3.473-0.842l2.842-0.842l2.104-1.263l2.842-2l2.105-1.684l1.578-1.579l0.211-2.947v-3.473l-1.053-2.631l-2.211-2.736
			l-3.051-1.053l-3.578-1.789l-1.369-1.263l-3.893-2l-2.736-1.684l-3.053-1.263l-1.895-1.052l-2.842-0.737l-1.893-0.21l-2.631-1.473
			l-2.422-1.474l-1.473-2.631l-1.473-2.104l-1.053-2.842l-0.211-3.262l0.842-2.947l0.211-2.631l1.262-3.052l1.684-2.526l1.789-2.42
			l0.422-1.263l1.473-1.894h2l0.631-2.21l2.316-0.631l2.42-1.263l2.842-0.21l3.156-0.526l4.105-1.263l3.684-0.842h3.051l2.947,0.842
			l2.209,1.263l2.527,2l1.578,1.052l1.684,2.42l0.631,1.474v3.052l-1.479,2.315l-1.479,1.579l-2.641,1.053l-4.332,0.421
			l-3.486-0.421l-2.957-0.21l-3.275,0.631l-3.064,1.473l-2.111,1.579l-2.008,2.105l-0.846,3.052l1.268,2.315l2.008,1.789
			l2.746,0.631l2.006,1.473l1.902,1.684l2.217,1.789l1.904,2.104l2.006,0.421l1.689,0.947l1.479,1.894l2.008,0.842l1.9,1.158
			l2.219,1.894l1.689,2.105l0.213,3.052l0.633,3.473L484.072,236.637z"/>
	</g>
</g>
<g>
</g>
<g>
</g>
<g>
</g>
<g>
</g>
<g>
</g>
<g>
</g>
</svg>
